<?xml version="1.0" encoding="UTF-8"?>
<svg width="540px" height="224px" viewBox="0 0 540 224" version="1.1" xmlns="http://www.w3.org/2000/svg" xmlns:xlink="http://www.w3.org/1999/xlink">
    <!-- Generator: Sketch 46.2 (44496) - http://www.bohemiancoding.com/sketch -->
    <title>dotfiles-logo</title>
    <desc>Created with Sketch.</desc>
    <defs>
        <path d="M149.907895,1.52470151e-15 L10,0 L10,1.77635684e-15 C4.4771525,2.79088747e-15 -6.76353751e-16,4.4771525 0,10 L0,10 L0,214 C6.76353751e-16,219.522847 4.4771525,224 10,224 L173,224 C178.522847,224 183,219.522847 183,214 L183,33.1003584 L183,56.2007168 L126.815789,0 L149.907895,0 Z" id="path-1"></path>
        <path d="M181.174685,54.1746848 L127,0 L127,46 L127,46 C127,51.5228475 131.477153,56 137,56 L178.382264,56 L183,56 L181.174685,54.1746848 Z" id="path-3"></path>
    </defs>
    <g id="Page-1" stroke="none" stroke-width="1" fill="none" fill-rule="evenodd">
        <g id="dotfiles-logo">
            <g id="file">
                <mask id="mask-2" fill="white">
                    <use xlink:href="#path-1"></use>
                </mask>
                <use id="Base" fill="#2C3E50" xlink:href="#path-1"></use>
                <circle id="Oval" fill="#16A085" mask="url(#mask-2)" cx="91.5" cy="112.5" r="17.5"></circle>
                <mask id="mask-4" fill="white">
                    <use xlink:href="#path-3"></use>
                </mask>
                <use id="Fold" fill="#16A085" xlink:href="#path-3"></use>
            </g>
            <text id="dotfiles" font-family="Avenir-Heavy, Avenir" font-size="96" font-weight="600" fill="#16A085">
                <tspan x="206.5" y="143">dotfiles</tspan>
            </text>
        </g>
    </g>
</svg>